<svg id="Layer_1" data-name="Layer 1" xmlns="http://www.w3.org/2000/svg" viewBox="0 0 1000 1000"><defs><style>.cls-1{fill:#174171;}.cls-2{fill:#fff;}.cls-3{fill:#c62032;}</style></defs><path class="cls-1" d="M262.21,220.86V445.21C262.21,657.14,500,779.14,500,779.14s237.79-121,237.79-333.93V220.86H262.21"/><path class="cls-2" d="M630.27,599.25A147,147,0,0,0,625.1,562c-35.16,22.75-70.31,29-91,16.54a7.9,7.9,0,0,0,2.06-5.17,8.15,8.15,0,0,0-8.27-8.27,8,8,0,0,0-5.17,2.07c-12.4-20.68-6.2-55.83,16.55-91A105.56,105.56,0,0,0,500,469h0a147,147,0,0,0-37.22,5.17c22.75,35.15,29,70.3,16.54,91a7.91,7.91,0,0,0-5.17-2.07,8.16,8.16,0,0,0-8.27,8.28A7.9,7.9,0,0,0,468,576.5c-20.68,12.41-55.83,6.21-91-16.54-4.13,12.41-5.17,24.82-5.17,37.22h0A147,147,0,0,0,377,634.4c35.15-22.75,70.3-28.95,91-16.54a7.91,7.91,0,0,0-2.07,5.17,8.16,8.16,0,0,0,8.27,8.27,7.91,7.91,0,0,0,5.17-2.07c12.41,20.68,6.21,55.83-16.54,91,12.41,4.13,24.81,5.17,37.22,5.17h0a147,147,0,0,0,37.22-5.17c-22.75-35.15-29-70.3-16.54-91a7.91,7.91,0,0,0,5.17,2.07,8.16,8.16,0,0,0,8.27-8.27,7.91,7.91,0,0,0-2.07-5.17c20.68-12.41,55.83-6.21,91,16.54,5.17-10.34,7.24-22.75,7.24-35.15h0"/><path class="cls-1" d="M523.78,599.25A23.78,23.78,0,1,1,500,575.47a23.4,23.4,0,0,1,23.78,23.78"/><rect class="cls-2" x="275.65" y="234.3" width="448.69" height="209.87"/><path class="cls-3" d="M537.22,384.21c2.07,2.07,1,3.1,0,4.13s-12.41,8.28-19.64,6.21c-5.17-2.07-5.17-11.38-13.44-15.51-6.21-3.1-13.44,2.07-13.44,2.07,11.37,0,14.47,15.51,14.47,15.51-16.54-13.45-32.05-4.14-34.12,4.13,14.48-9.3,26.88,3.1,26.88,3.1-5.17,1-16.54,9.31-8.27,22.75,2.07-15.51,17.58-18.61,17.58-18.61-1,7.23,5.17,21.71,17.57,18.61-9.3-6.21-7.23-12.41-7.23-15.51,0-2.07,2.06-4.14,5.16-4.14,17.58-2.06,17.58,11.38,17.58,11.38,5.17,0,17.58-17.58,17.58-26.88,5.16,7.23,17.57,11.37,26.88,5.17-12.41-2.07-16.55-13.45-17.58-15.51s-3.1-16.54-9.3-21.71c-8.27-8.27-19.65-2.07-26.88,4.13-2.07,2.07-8.28,12.41-1,15.51,4.14,3.1,5.17,4.13,7.24,5.17"/><path class="cls-3" d="M348,349.06c-18.6,0-38.25-36.19-40.32-39.29,10.34-1,9.31-6.2,8.28-9.3-3.11-12.41-26.88-1-29,1,1-12.41,13.44-16.54,21.71-15.51h0c-1-17.57-17.58-18.61-17.58-18.61,14.48-10.34,23.78,3.11,26.88,13.44,14.48-10.33,1-24.81-2.06-26.88a17.18,17.18,0,0,1,16.54,10.34c3.1,11.38-2.07,18.61-2.07,18.61s4.13,0,6.2-2.07a15.18,15.18,0,0,0,7.24-14.47s6.2,4.14,5.17,10.34c0,5.17-5.17,8.27-7.24,11.37s-7.24,8.27-1,25.85c3.1,8.27,7.23,15.5,10.34,16.54-1,4.13-5.17,8.27-3.11,18.61"/><path class="cls-3" d="M307.7,375.94c-11.37,1-31,5.17-20.67,25.84,0-14.47,19.64-15.5,22.74-14.47-9.3,15.51,1,30,10.34,30-8.27-7.23-1-16.54,0-19.64a6.3,6.3,0,0,1,7.24-3.1c10.34,3.1,3.1,11.37,3.1,11.37,22.74,10.34,33.08,1,37.22-4.14,0,0,7.23,7.24,0,11.38,4.13,2.06,25.84,3.1,33.08-7.24,3.1,8.27,27.91,8.27,33.08,4.14,0,0-5.17-3.11-5.17-7.24,0-6.2,7.24-11.37,15.51-15.51,10.34-4.14,26.88-6.2,43.42-14.47,31-14.48,69.27-42.39,81.68-24.82,6.2,8.27,5.17,17.58,11.37,22.75,6.2,6.2,16.54,3.1,22.74,2.07,15.51-2.07,37.22-4.14,49.63-5.17,13.44-1,16.54,9.3,17.58,10.34,1,3.1,0,5.16-2.07,4.13-4.14,0-12.41-2.07-17.58,0-6.2,4.14-5.17,13.44-5.17,13.44,5.17-9.3,20.68-8.27,26.88-7.24-5.17,4.14-14.47,21.72-1,29-3.1-13.44,9.3-22.74,9.3-22.74,1,4.13,9.31,11.37,26.88,10.34-18.61-6.21-15.5-15.51-15.5-15.51,6.2,3.1,19.64,1,25.84-13.44-21.71,13.44-26.88,1-27.91-1-4.14-7.23,6.2-8.27,6.2-8.27-2.07-4.13-32-22.74-17.57-28.94-5.17-3.11-17.58-2.07-27.92,6.2,0-2.07,0-9.31-3.1-12.41,0,0-17.57,12.41-32.05,10.34s-8.27-22.74-8.27-22.74,36.18,4.13,49.62-2.07S670.59,301.5,682,295.3c9.3-5.17,19.64-1,19.64-1-2.07-5.17-19.64-12.4-33.08,2.07,0,0-1-25.84-33.09-22.74-19.64,2.07-35.15,10.34-54.79,13.44-19.64,4.13-39.29,7.23-51.69,7.23s-31-3.1-32.05-17.57c-1-8.27,5.17-11.37,11.37-11.37,9.31,0,22.75,5.17,34.12,9.3,7.24,3.1,15.51,3.1,19.64,3.1,11.37,0,25.85-5.17,33.08-8.27s12.41-4.13,26.88-3.1c-6.2-6.2-36.18-19.64-56.86-18.61-19.64,1-20.67,10.34-40.32,9.3s-36.18,2.07-37.22,16.55S500,303.57,531,301.5c13.44,0,62-8.27,71.33-11.37,12.41-4.14,61-13.44,51.69,10.34-2.06,5.17-7.23,10.34-21.71,10.34s-32.05-4.14-36.18-5.17c-5.17-1-17.58-2.07-30-1-11.38,2.07-91,13.44-104.42,14.48,0,5.17-3.1,19.64,10.34,28.94-6.21,3.11-17.58,9.31-28.95,4.14-1,4.13,4.13,10.34,9.3,16.54-4.13,1-21.71,9.31-30,4.14-3.1,6.2-14.47,22.74-39.28,17.57,2.06-1,1-9.3-5.17-11.37-6.21,1-7.24,4.13-32.05,1-7.24-1-13.44-3.1-15.51-8.27s1-12.4-1-16.54C326.31,347,313.91,348,313.91,348c11.37,8.27,4.13,20.68,4.13,20.68C307.7,358.36,291.16,348,286,366.63c13.44-6.2,21.71,9.31,21.71,9.31"/><path class="cls-3" d="M470,282.89c-6.2-12.4-20.68-3.1-20.68-3.1,4.14-4.13,0-18.61-4.13-20.68,0,7.24-6.21,9.31-10.34,8.27-5.17-1-3.1-9.3-2.07-12.4-4.14,0-13.44-1-19.64,8.27-2.07-11.37-11.38-15.51-21.71-13.44,11.37,12.4-13.44,26.88-21.71,22.74-4.14,8.27,9.3,17.58,11.37,15.51-7.24,10.34-18.61,8.27-24.81,6.2,0,4.14,5.16,14.48,14.47,14.48-5.17,5.17-15.51,5.17-19.64,4.13-1,7.24,10.33,13.44,13.44,14.48-9.31,15.5-6.21,34.11-1,41.35l3.1,6.2c8.27-15.5,25.85-9.3,22.75,5.17,16.54,2.07,24.81-12.4,28.95-21.71,6.2,6.21,13.44,7.24,17.57,6.21-5.17-10.34-3.1-20.68-1-24.82,6.2,5.17,14.47,7.24,18.61,5.17-5.17-7.23-5.17-25.84-4.14-33.08,4.14,2.07,12.41,5.17,16.54-4.14C458.65,306.67,457.61,282.89,470,282.89ZM393.51,285c1-1,3.11-3.1,4.14-2.07,2.07,2.07,2.07,4.14,5.17,7.24,2.07,2.07,6.2,3.1,7.24,4.13,1,4.14-6.21,9.31-14.48,1C392.48,292.2,390.41,288.06,393.51,285Zm18.61,50.66c-8.27,12.4-17.57,6.2-17.57,6.2s-10.34-4.13-5.17-17.57c-6.2-4.14-4.14-10.34-2.07-11.38,1,2.07,1,5.17,7.24,8.27,5.17,3.11,7.23,1,8.27,0,1-2.06-2.07-4.13-3.1-6.2a6.38,6.38,0,0,1-1-7.24c2.07-2.06,5.17-2.06,6.21-1-7.24,1,2.06,7.24,4.13,8.27,1,1,11.37,5.17,8.27-1,2.07,0,3.1,3.1,3.1,5.17s-3.1,4.13-6.2,3.1c-3.1,0-6.2-1-7.24,1-1,1,0,4.14,5.17,7.24s7.24,1,10.34,0C422.46,332.52,419.36,338.72,412.12,335.62ZM440,308.74c-1,3.1-5.17,5.17-10.34,4.13-10.34-2.06-10.34-10.34-7.24-11.37a22.47,22.47,0,0,0,7.24,4.14c4.13,1,6.2,0,9.3,0C440,304.6,440,306.67,440,308.74Z"/></svg>