<?xml version="1.0" standalone="no"?>
<!DOCTYPE svg PUBLIC "-//W3C//DTD SVG 20010904//EN"
 "http://www.w3.org/TR/2001/REC-SVG-20010904/DTD/svg10.dtd">
<svg version="1.0" xmlns="http://www.w3.org/2000/svg"
 width="259.000000pt" height="407.000000pt" viewBox="0 0 259.000000 407.000000"
 preserveAspectRatio="xMidYMid meet">

<g transform="translate(0.000000,407.000000) scale(0.100000,-0.100000)"
fill="#000000" stroke="none">
<path d="M92 4009 l-93 -60 20 -32 c10 -18 119 -203 242 -412 122 -209 240
-409 261 -445 l38 -64 -50 -44 c-50 -44 -59 -66 -40 -103 13 -23 27 -24 68 -3
17 8 46 17 64 20 29 5 35 1 51 -26 9 -17 17 -36 17 -40 0 -5 -24 -12 -52 -16
-40 -6 -60 -14 -83 -38 -16 -17 -52 -42 -80 -56 -46 -23 -50 -28 -53 -64 -3
-32 -1 -38 12 -32 9 3 23 9 31 12 10 4 18 -3 25 -20 8 -23 15 -26 59 -26 68 0
111 10 111 26 0 9 11 14 31 14 31 0 31 0 24 -42 -4 -24 -8 -44 -9 -44 0 -1
-23 2 -51 6 -104 18 -186 12 -242 -17 -64 -32 -138 -103 -148 -140 -8 -33 19
-73 58 -86 28 -9 36 -6 127 46 51 29 164 51 216 41 41 -8 64 -37 64 -81 0 -26
-6 -36 -31 -48 -29 -15 -32 -15 -74 9 -49 29 -65 32 -84 14 -7 -8 -40 -13 -84
-13 -62 0 -79 -4 -122 -29 -67 -40 -150 -125 -157 -160 -14 -71 35 -136 118
-158 42 -12 44 -14 44 -49 0 -40 24 -69 58 -69 23 0 52 25 52 45 0 7 8 16 17
19 17 7 24 1 49 -40 13 -22 44 -12 51 16 4 14 14 20 33 20 31 0 58 -26 62 -60
3 -22 -2 -25 -38 -30 -23 -3 -68 -20 -100 -37 -34 -18 -82 -33 -114 -37 -67
-7 -104 -32 -108 -73 -4 -43 44 -83 100 -83 52 0 43 -10 -35 -36 -47 -16 -65
-27 -76 -48 -20 -43 -2 -76 44 -76 19 0 52 -9 72 -20 21 -11 50 -20 65 -20 46
0 104 29 135 68 40 49 116 90 204 108 39 8 73 13 74 12 2 -2 -81 -57 -184
-124 -167 -108 -186 -124 -189 -150 -4 -38 32 -86 61 -82 11 2 35 23 52 48 42
61 68 63 95 10 25 -48 39 -56 80 -42 16 6 30 9 30 6 0 -7 -120 -227 -132 -241
-20 -24 -54 -12 -173 62 -108 68 -124 75 -170 75 -49 -1 -51 -2 -84 -51 l-34
-50 30 -37 c45 -56 171 -138 232 -151 66 -14 155 -14 206 0 79 22 91 38 213
287 l114 234 84 -4 c46 -2 87 -7 90 -11 10 -10 18 -238 10 -291 -9 -57 -58
-112 -111 -122 -32 -6 -35 -9 -35 -40 l0 -34 270 0 270 0 0 30 c0 26 -4 30
-27 30 -41 0 -113 39 -134 74 -17 27 -19 52 -19 197 l0 165 44 21 c34 17 47
19 54 10 5 -7 62 -118 127 -247 64 -129 127 -246 139 -258 43 -48 95 -67 181
-66 120 1 191 25 269 93 36 31 75 69 87 84 l21 28 -29 47 -29 47 -62 3 c-61 3
-63 2 -145 -55 -124 -88 -136 -94 -165 -91 -24 3 -37 22 -114 173 -48 94 -87
172 -88 175 0 3 11 6 25 6 14 1 44 14 65 28 51 34 74 33 107 -5 24 -27 28 -28
34 -12 13 31 9 117 -5 146 -19 34 -17 34 112 5 67 -15 131 -22 208 -23 121 0
144 8 144 52 0 70 -52 98 -168 90 -51 -3 -79 -1 -71 4 8 5 38 9 67 9 69 0 92
13 92 50 0 44 -31 60 -115 60 -58 0 -75 4 -93 20 -40 37 -29 50 43 50 63 0 65
1 65 25 0 29 -6 34 -182 125 l-126 65 -38 -20 c-34 -16 -66 -19 -251 -23
l-213 -4 0 44 c0 38 4 46 25 56 36 17 45 15 45 -7 0 -11 11 -32 24 -48 21 -24
32 -28 93 -31 67 -4 72 -3 106 27 50 44 82 51 237 50 103 0 152 -5 205 -20 39
-11 80 -22 92 -25 26 -7 76 39 71 65 -4 22 -97 66 -193 92 -110 30 -115 32
-80 37 16 2 57 -4 91 -13 34 -9 76 -15 95 -13 29 3 34 7 37 31 7 56 -57 107
-133 107 -29 0 -36 3 -33 18 3 16 21 22 105 38 27 5 39 43 23 74 -16 30 -50
40 -143 40 -91 0 -142 18 -205 70 -20 16 -44 30 -53 30 -27 0 -29 12 -9 40 31
44 64 46 121 10 51 -33 75 -36 92 -9 19 31 -1 68 -58 104 -29 19 -56 39 -60
45 -8 14 34 92 48 87 6 -2 14 -14 17 -27 l6 -24 22 29 c30 38 37 69 22 105
-11 28 -9 36 45 127 32 54 157 267 277 473 121 206 228 389 239 406 l19 31
-91 57 c-50 32 -95 54 -100 49 -10 -10 -430 -774 -472 -860 -23 -47 -36 -62
-52 -62 -11 1 -42 -3 -70 -9 -27 -6 -104 -14 -170 -17 -117 -7 -121 -7 -169
19 -27 14 -55 26 -62 26 -9 0 -14 12 -14 35 0 19 2 35 5 35 3 0 50 -22 105
-50 130 -65 161 -65 238 1 18 16 45 32 60 35 15 4 30 12 34 18 14 21 8 63 -12
81 -17 16 -32 17 -116 12 -149 -10 -242 20 -188 60 18 14 45 13 105 -2 21 -5
34 0 61 24 38 33 66 39 86 19 18 -18 16 16 -3 52 -18 36 -52 60 -83 60 -18 0
-22 4 -17 19 10 34 -15 67 -88 111 -195 119 -213 133 -192 141 11 4 48 8 82 8
59 1 61 2 72 31 13 38 1 74 -31 91 -13 7 -54 15 -92 18 -69 6 -70 6 -79 40
-12 47 -36 81 -57 81 -25 0 -49 -25 -56 -58 -3 -15 -7 -37 -10 -49 -3 -16 -11
-23 -29 -23 -29 0 -90 -51 -111 -92 -14 -27 -14 -32 1 -48 26 -29 12 -37 -69
-42 -90 -6 -164 -43 -214 -108 -27 -35 -32 -50 -30 -83 5 -62 26 -68 98 -29
74 41 125 42 125 2 0 -21 -6 -26 -39 -31 -61 -10 -76 -45 -55 -128 3 -11 -18
-17 -83 -27 -102 -15 -126 -26 -134 -58 -12 -50 -2 -66 61 -92 50 -21 71 -24
125 -20 36 3 118 0 182 -7 l117 -11 7 -43 c3 -24 5 -46 2 -48 -2 -2 -33 8 -68
22 -81 33 -243 43 -327 20 l-53 -14 -46 91 c-41 78 -482 888 -488 893 -1 1
-43 -25 -94 -58z m1417 -515 c2 -2 -2 -10 -8 -18 -9 -10 -23 -13 -44 -9 -41 8
-41 7 -28 32 10 18 15 19 44 9 17 -6 34 -12 36 -14z m-352 -151 c-3 -2 -22 -3
-42 -1 l-38 3 39 28 39 27 3 -26 c2 -14 1 -28 -1 -31z m293 -368 c47 -29 72
-32 233 -20 126 9 137 4 99 -40 -16 -18 -29 -20 -162 -20 -124 0 -151 3 -185
20 -33 16 -41 26 -43 53 -4 39 6 40 58 7z m-6 -198 c25 -19 10 -49 -23 -45
-20 2 -27 9 -29 31 -3 21 1 27 15 27 11 0 27 -6 37 -13z m270 -2 c-7 -17 -7
-17 -28 -9 -24 9 -19 24 9 24 18 0 23 -4 19 -15z m-168 -187 c24 -18 44 -36
44 -39 0 -3 -17 -13 -37 -23 -36 -17 -40 -17 -95 1 -32 10 -58 24 -58 31 0 20
52 61 79 62 13 0 43 -15 67 -32z m-378 -15 c-3 -25 -8 -28 -66 -38 -56 -10
-62 -10 -60 4 2 11 12 15 29 13 16 -2 35 6 53 23 35 32 48 32 44 -2z m10 -255
l-3 -63 -42 -15 c-23 -8 -45 -12 -48 -9 -2 3 8 31 25 63 54 107 72 113 68 24z
m286 31 c27 -17 45 -34 40 -38 -5 -5 -30 -18 -56 -29 l-48 -21 0 60 c0 32 4
59 8 59 4 0 30 -14 56 -31z m406 -198 l35 -19 -48 -7 c-33 -5 -74 -2 -125 9
-56 11 -88 13 -117 6 -22 -5 -44 -5 -49 0 -4 4 22 11 60 15 38 3 76 8 84 9 47
11 128 4 160 -13z m-1087 -93 c21 -43 38 -47 67 -18 18 18 80 29 80 15 0 -18
-33 -65 -56 -80 -36 -23 -82 -22 -134 5 -34 17 -52 20 -89 15 -25 -3 -82 -7
-126 -9 -44 -2 -93 -8 -108 -15 -47 -18 -58 -15 -51 17 10 44 39 62 99 62 48
0 53 -2 59 -25 11 -44 38 -32 76 33 24 39 56 43 70 7 11 -29 32 -25 49 11 16
35 42 27 64 -18z m395 -96 c3 -54 1 -62 -15 -62 -10 0 -63 -16 -117 -35 -115
-40 -126 -42 -126 -16 0 27 85 97 143 118 27 10 59 27 70 39 12 12 27 21 32
20 6 -2 11 -30 13 -64z m496 -282 c15 -5 43 -10 62 -10 21 0 77 -20 142 -51
59 -28 122 -58 141 -66 49 -21 32 -26 -49 -14 -45 7 -108 28 -169 56 -125 57
-182 69 -303 62 -96 -5 -98 -5 -98 17 0 22 1 23 124 20 68 -2 136 -8 150 -14z
m-1099 -86 c-31 -24 -75 -45 -75 -36 0 24 33 52 63 52 31 -1 31 -1 12 -16z
m598 -101 c-7 -2 -19 -2 -25 0 -7 3 -2 5 12 5 14 0 19 -2 13 -5z m657 -32 c0
-23 -92 -28 -110 -6 -11 13 -5 15 49 15 33 0 61 -4 61 -9z"/>
<path d="M900 655 c-86 -27 -150 -102 -150 -177 0 -123 83 -205 220 -217 l64
-6 -37 -38 c-46 -46 -97 -78 -159 -102 -49 -18 -52 -23 -42 -62 5 -20 13 -23
54 -23 110 0 250 71 315 160 42 57 64 115 72 191 20 194 -149 332 -337 274z
m127 -107 c32 -35 43 -63 43 -107 0 -32 -5 -44 -24 -56 -65 -43 -136 13 -136
106 0 30 6 53 16 63 23 24 77 20 101 -6z"/>
<path d="M2070 632 c-172 -45 -287 -175 -298 -335 -8 -128 32 -209 129 -262
114 -62 266 -28 331 74 23 37 28 56 28 105 -1 134 -85 216 -222 216 l-49 0 15
29 c23 43 92 98 148 117 36 12 48 20 44 31 -3 8 -6 21 -6 29 0 19 -38 17 -120
-4z m-18 -323 c25 -13 57 -84 58 -126 0 -42 -30 -73 -71 -73 -45 0 -65 14 -83
60 -16 40 -22 131 -9 143 10 11 82 8 105 -4z"/>
<path d="M428 586 c-60 -22 -108 -44 -108 -48 0 -5 17 -8 39 -8 l38 0 7 -82
c11 -144 9 -352 -3 -356 -6 -2 -21 -12 -33 -22 -23 -19 -21 -19 131 -20 l155
0 -31 33 -31 32 -11 240 c-6 132 -11 248 -11 258 0 24 -19 21 -142 -27z"/>
<path d="M1476 582 c-71 -25 -125 -47 -120 -48 5 -1 26 -5 47 -9 l37 -6 0
-219 0 -219 -29 -16 c-60 -31 -46 -35 116 -35 l158 1 -32 28 -33 27 0 272 c0
150 -3 272 -7 271 -5 0 -66 -21 -137 -47z"/>
</g>
</svg>
