<?xml version="1.0" encoding="UTF-8"?><svg id="a" xmlns="http://www.w3.org/2000/svg" viewBox="0 0 150 150"><defs><style>.cls-1{fill:#e20613;}.cls-2{fill:none;}</style></defs><g id="b"><g id="c"><path id="d" class="cls-2" d="M0,0H150V150H0V0Z"/></g></g><path class="cls-1" d="M134.45,119.38c-3.25-1.61-6.45-3.04-9.64-4.47,1.91,.99,3.78,1.99,5.59,3.01,1.34,.5,2.69,.98,4.05,1.46Z"/><path class="cls-1" d="M39.72,77.1c-.05,.07-.12,.13-.17,.21,.34-.49,.78-.91,1.3-1.21,2.98-3.25,5.94-6.22,8.8-8.86-.88,.73-1.74,1.49-2.6,2.24-2.53,2.43-4.98,4.98-7.33,7.62Z"/><path class="cls-1" d="M130.4,117.93c-6.54-2.4-13.03-4.94-19.44-6.08,2.83,.34,6.22,1.37,9.06,1.72-6.76-2.05-13.65-6.16-20.42-8.21h4.65c-7.86-3.59-15.68-5.75-23.86-8.22,2.09,0,4.31,.81,6.5,1.3-4.58-1.9-9.68-2.63-14.42-4.06,2.59,.59,5.14,1.5,7.78,1.66-8.08-2.9-13.46-4.6-13.46-4.6,7.39-2.75,15.85-9.1,22.4-14.7-2.41,1.37-4.93,2.54-7.53,3.51-3.2,2.21-6.5,4.21-10.53,5.28,6.87-2.72,11.57-8.18,17.36-12.27-2.65,2.73-5.3,5.46-8.5,7.5,3.97-1.23,6.77-4.64,10.68-6.47,2.03-1.05,3.5-2.73,5-4.35-1.16,.65-2.29,1.35-3.43,1.95,3.08-1.97,5.93-4.42,8.92-6.58,7.38-9.3,10.51-16.19,11.54-21.16-1.61,.96-3.2,1.95-4.2,3.87,1.23-2.72,2.78-5.29,4.62-7.64,0-.49-.02-.98-.06-1.46-1.57,.48-2.32,2.21-4.39,1.95,1.2-1.71,1.99-3.76,3.61-5.12-1.09,.34-2.05,1.02-3.56,1.02,.42-1.36,1.26-2.38,1.68-3.76-.53,.23-1.1,.51-1.69,.34,.55-.03,1.27,0,1.58-.53-.44-.79-.96-1.53-1.56-2.21h-.65c.12-.1,.14-.36,.21-.54-4.55,1.09-8.02,3.66-12.35,4.65,2.79-2.87,7.39-3.59,10.61-6.17-1.44-1.3-3.08-1.68-4.96-1.68-.38-.31,.19-.65,0-.93-1.21-.49-2.48-.07-3.64-.1,.3,0,.6,0,.79-.34-2.17,.65-4.22,1.7-6.64,1.7,1.52-.74,3.11-1.31,4.75-1.72-6.94,0-12.73,2.38-18.88,3.74,1.09-.34,2.05-1.02,3.13-1.36-4.34,1.36-7.6,4.09-12.18,4.76,1.91-1.2,3.71-2.72,5.74-3.9-13.68,4.21-26.08,11.81-36.04,22.09,1.87-1.26,3.73-2.53,5.52-3.9-2.48,1.95-5.06,4.09-6.63,6.99,.1-.05,.19-.12,.31-.17-.35,.6-.83,1.13-1.03,1.79,1.32-1.14,2.71-2.2,4.17-3.15-1.29,1.45-2.77,2.71-4.4,3.75,.06-.21,.15-.4,.23-.6-1.52,1.96-3.01,4.01-5.17,5.37,1.72-2.57,4.66-4.15,5.9-6.99-3.42,1.75-5.49,5.04-7.65,8.01,.42-1.18,1.3-2.2,2.03-3.25-2.77,3.65-5.28,7.48-7.52,11.48,.88-.9,1.47-2.05,2.17-3.08-1.61,2.86-3.9,5.39-4.07,8.87,1.55-1.84,2.97-3.78,4.28-5.8-1.66,3.66-4.9,6.24-5.91,10.63,.13-.25,.25-.49,.38-.73,.22,.65-.21,1-.5,1.43-.06,.32-.13,.65-.16,.96-.21-.58,.28-1.08,.28-1.66-1.85,3.52-3.62,7.08-4,11.55-.65-1.03,.18-2.05-.49-3.07-1.57,2.38-2.29,5.46-2.27,8.88-.33-.93,.05-1.85-.14-2.77-5.75,19.76-5.59,35.89-5.59,35.89,3.41-9.86,7.76-19.37,13-28.4-1.5,1.3-2.92,2.6-4.42,4.17,2.15-2.64,4.15-5.41,5.97-8.28l-.79,.78c.48-2.05,1.81-3.41,2.83-4.78-.57,1.38-1.25,2.72-2.03,4,.82-.79,1.63-1.59,2.43-2.37,3.66-5.8,7.94-11.19,12.11-16.62-.86,1.01-1.73,2.01-2.6,3.04,.9-1.7,2.35-2.73,3.37-4.09-.27,.35-.54,.71-.81,1.05,4.5-5.6,9.62-10.65,15.21-15.15-2.16,.99-4,2.24-5.92,3.2,4.2-4.42,9.24-7.95,14.83-10.4,8.82-6.53,14.95-9.4,14.95-9.4,9.15-3.01,20.08-6.5,23.98-7.71-15.16,5.2-30.41,24.43-30.41,24.43-24.98,22.16-8.04,38.09-8.04,38.09,33.6,20.99,87.27,28.59,87.27,28.59-4.49-4.6-11.2-9.15-18.86-13.45Zm-28.44-78.12c-.23,.06-.46,.14-.7,.21l.7-.21Z"/><path class="cls-1" d="M52.67,64.54l.12-.12-.15,.13h.03Z"/><path class="cls-1" d="M124.81,114.91c-2.54-1.3-5.15-2.6-7.8-3.85l-.99-.23c2.97,1.47,5.88,2.77,8.79,4.08Z"/><path class="cls-1" d="M95.67,69.92c.76-.44,1.53-.86,2.35-1.25,1.42-1.39,2.24-2.25,2.24-2.25l.36-.45c-1.17,.8-2.33,1.61-3.47,2.44-.51,.49-.99,.99-1.48,1.51Z"/><path class="cls-1" d="M19.06,46.03c1.68-.5,2.83-1.53,4.09-2.21l-1.79,3.38c1.36-.31,1.92-1.35,3.42-1.34-.6,.26-.88,.92-1.3,1.51h.45c2.57-1.64,4.59-3.7,7.03-5.2-.99,1.3-2.24,2.6-3.25,3.94,1.05-.4,1.3-1.93,2.35-2.24-.57,.58-1.16,1.25-1.79,1.95,7.18-4.01,12.9-15.34,11.32-22.14-.77,1.35-1.68,2.65-3.25,3.09,1-1.33,1.88-2.98,2.88-4.33v-.08c-.82,.08-1.09,1-1.95,1,.67-.56,1.16-1.3,1.42-2.13-.05-.08-.1-.16-.16-.24-.17,.18-.3,.41-.36,.65-.09-.38-.08-.78,.04-1.16-.2-.23-.42-.45-.65-.65-1.44,1.27-2.96,2.46-4.55,3.54,1.17-1.42,2.14-2.99,3.25-4.39-.45-.21-.92-.36-1.41-.44-.86,.73-1.84,1.32-2.89,1.73,.3-.57,.57-1.23,.92-1.84-1.2-.02-2.07,1.05-3.27,1.19l.7-.53c-8.55,2.78-16.81,18.97-12.31,25.67,.17-.16,.32-.36,.44-.57,.24,.66,.36,1,.63,1.85Z"/><path class="cls-1" d="M112.1,47.91c-.31,.59-.65,1.19-.88,1.81,.38-.56,.67-1.17,.88-1.81Z"/><path class="cls-1" d="M92.09,76.5c-.41,.36-.78,.76-1.11,1.2,.36-.42,.73-.79,1.11-1.2Z"/><path class="cls-1" d="M94.3,74.28l-.26,.12c-.65,.69-1.3,1.39-1.95,2.1,.8-.67,1.54-1.41,2.21-2.22Z"/><path class="cls-1" d="M104.89,63.37c-1.36,.42-2.63,1.08-3.75,1.95-.18,.23-.35,.45-.54,.65,1.38-.95,2.81-1.82,4.29-2.6Z"/><path class="cls-1" d="M87.53,98.27l-2.11-.55c.25,.16,.51,.31,.77,.45,.45,0,.89,.07,1.34,.1Z"/><path class="cls-1" d="M85.41,97.72c-.57-.37-1.18-.68-1.83-.92-1.07-.42-2.19-.68-3.33-.77l3.39,1.23,1.76,.45Z"/><path class="cls-1" d="M53.05,64.34c-.14,.06-.25,.14-.38,.2-.98,.86-1.95,1.76-2.99,2.69,1.15-.96,2.28-1.92,3.37-2.89Z"/><path class="cls-1" d="M68.06,54.8c-2.21,.75-4.38,1.62-6.5,2.6-2.7,2-5.65,4.34-8.75,7.05,4.65-3.85,9.78-7.1,15.25-9.65Z"/><path class="cls-1" d="M44.33,74.41c.51-.3,.96-.71,1.3-1.2-.45,.34-.86,.79-1.3,1.2Z"/></svg>